<?xml version="1.0" standalone="no"?>
<svg xmlns="http://www.w3.org/2000/svg" xmlns:xlink="http://www.w3.org/1999/xlink" version="1.1" id="v-2" width="1519.2000732421875" height="684" xmlns:ev="http://www.w3.org/2001/xml-events" style="overflow: hidden; width: 1519.2px; height: 684px;"><g id="v-3" class="joint-viewport svg-pan-zoom_viewport" transform="matrix(0.9999999914934803,0,0,0.9999999914934803,0,0)" style="transform: matrix(1, 0, 0, 1, 0, 0);"><g model-id="dd57e459-0188-4e2a-9742-26f6eee7ff7e" id="j_734" class="joint-cell joint-type-uml joint-type-uml-class joint-element joint-theme-default" data-type="uml.Class" fill="#ffffff" stroke="none" transform="translate(747,0)"><g class="rotatable" id="v-8951"><g class="scalable" transform="scale(1.2394921875,0.6875)"><rect class="uml-class-name-rect" id="v-8952" width="200" stroke="#ffffff" stroke-width="0.5" fill="#feb662" height="40" transform="translate(0,0)"/><rect class="uml-class-attrs-rect" id="v-8953" width="200" stroke="#fff" stroke-width="0.5" fill="#fdc886" height="120" transform="translate(0,40)"/><rect class="uml-class-methods-rect" id="v-8954" width="200" stroke="#fff" stroke-width="0.5" fill="#fdc886" display="none" height="20" transform="translate(0,160)"/></g><text class="uml-class-name-text" id="v-8955" font-size="12" xml:space="preserve" y="0.8em" text-anchor="middle" font-weight="bold" fill="black" font-family="Times New Roman" transform="matrix(1,0,0,1,123.9,8.1)"><tspan id="v-8958" class="v-line" dy="0em">ผู้ใช้งาน</tspan></text><text class="uml-class-attrs-text" id="v-8956" font-size="12" xml:space="preserve" y="0.8em" fill="black" font-family="monospace" transform="matrix(1,0,0,1,5,39.5)"><tspan id="v-8959" class="v-line" dy="0em">VARCHAR(50)    ชื่อผู้ใช้งาน       PK</tspan><tspan id="v-8960" class="v-line" dy="1em" x="0">VARCHAR(50)    รหัสผ่าน</tspan><tspan id="v-8961" class="v-line" dy="1em" x="0">VARCHAR(50)    ชื่อจริง</tspan><tspan id="v-8962" class="v-line" dy="1em" x="0">VARCHAR(50)    นามสกุล</tspan><tspan id="v-8963" class="v-line" dy="1em" x="0">ENUM('ผู้บริหารประเภท</tspan></text><text class="uml-class-methods-text" id="v-8957" font-size="12" display="none" xml:space="preserve" y="0.8em" fill="black" font-family="Times New Roman" transform="matrix(1,0,0,1,5,5)"><tspan id="v-8964" class="v-line v-empty-line" dy="0em" style="fill-opacity: 0; stroke-opacity: 0;">-</tspan></text></g></g><g model-id="ee658a78-b6bf-47fc-946a-4572bc4c67c6" id="j_735" class="joint-cell joint-type-uml joint-type-uml-class joint-element joint-theme-default" data-type="uml.Class" fill="#ffffff" stroke="none" transform="translate(1146,248)"><g class="rotatable" id="v-8965"><g class="scalable" transform="scale(1.40150390625,0.6888888888888889)"><rect class="uml-class-name-rect" id="v-8966" width="200" stroke="#ffffff" stroke-width="0.5" fill="#feb662" height="40" transform="translate(0,0)"/><rect class="uml-class-attrs-rect" id="v-8967" width="200" stroke="#fff" stroke-width="0.5" fill="#fdc886" height="140" transform="translate(0,40)"/><rect class="uml-class-methods-rect" id="v-8968" width="200" stroke="#fff" stroke-width="0.5" fill="#fdc886" display="none" height="20" transform="translate(0,180)"/></g><text class="uml-class-name-text" id="v-8969" font-size="12" xml:space="preserve" y="0.8em" text-anchor="middle" font-weight="bold" fill="black" font-family="Times New Roman" transform="matrix(1,0,0,1,140.2,8.2)"><tspan id="v-8972" class="v-line" dy="0em">ค่าใช้จ่ายรายเดือน</tspan></text><text class="uml-class-attrs-text" id="v-8970" font-size="12" xml:space="preserve" y="0.8em" fill="black" font-family="monospace" transform="matrix(1,0,0,1,5,40.6)"><tspan id="v-8973" class="v-line" dy="0em">INT(10)        เลขที่ใบแจ้งหนี้    PK</tspan><tspan id="v-8974" class="v-line" dy="1em" x="0">INT(10)        ราคารวม             AI</tspan><tspan id="v-8975" class="v-line" dy="1em" x="0">VARCHAR(200)   สลิป</tspan><tspan id="v-8976" class="v-line" dy="1em" x="0">VARCHAR(10)    เดือน</tspan><tspan id="v-8977" class="v-line" dy="1em" x="0">DATE           วันที่ชำระ</tspan><tspan id="v-8978" class="v-line" dy="1em" x="0">VARCHAR(50)    ชื่อผู้ใช้งาน       FK</tspan></text><text class="uml-class-methods-text" id="v-8971" font-size="12" display="none" xml:space="preserve" y="0.8em" fill="black" font-family="Times New Roman" transform="matrix(1,0,0,1,5,5)"><tspan id="v-8979" class="v-line v-empty-line" dy="0em" style="fill-opacity: 0; stroke-opacity: 0;">-</tspan></text></g></g><g model-id="e9523ebc-c93f-4311-9262-8acd83c6b3b4" id="j_736" class="joint-cell joint-type-uml joint-type-uml-class joint-element joint-theme-default" data-type="uml.Class" fill="#ffffff" stroke="none" transform="translate(735,180)"><g class="rotatable" id="v-8980"><g class="scalable" transform="scale(1.354951171875,0.6833333333333333)"><rect class="uml-class-name-rect" id="v-8981" width="200" stroke="#ffffff" stroke-width="0.5" fill="#feb662" height="40" transform="translate(0,0)"/><rect class="uml-class-attrs-rect" id="v-8982" width="200" stroke="#fff" stroke-width="0.5" fill="#fdc886" height="80" transform="translate(0,40)"/><rect class="uml-class-methods-rect" id="v-8983" width="200" stroke="#fff" stroke-width="0.5" fill="#fdc886" display="none" height="20" transform="translate(0,120)"/></g><text class="uml-class-name-text" id="v-8984" font-size="12" xml:space="preserve" y="0.8em" text-anchor="middle" font-weight="bold" fill="black" font-family="Times New Roman" transform="matrix(1,0,0,1,135.5,8.1)"><tspan id="v-8987" class="v-line" dy="0em">ลูกค้า</tspan></text><text class="uml-class-attrs-text" id="v-8985" font-size="12" xml:space="preserve" y="0.8em" fill="black" font-family="monospace" transform="matrix(1,0,0,1,5,37.5)"><tspan id="v-8988" class="v-line" dy="0em">TEXT           ที่อยู่</tspan><tspan id="v-8989" class="v-line" dy="1em" x="0">ENUM('ชาย','หญิเพศ</tspan><tspan id="v-8990" class="v-line" dy="1em" x="0">VARCHAR(50)    ชื่อผู้ใช้งาน       PK FK</tspan></text><text class="uml-class-methods-text" id="v-8986" font-size="12" display="none" xml:space="preserve" y="0.8em" fill="black" font-family="Times New Roman" transform="matrix(1,0,0,1,5,5)"><tspan id="v-8991" class="v-line v-empty-line" dy="0em" style="fill-opacity: 0; stroke-opacity: 0;">-</tspan></text></g></g><g model-id="f32b338a-bdc9-40d9-9c27-3d415fb2d11f" id="j_737" class="joint-cell joint-type-uml joint-type-uml-class joint-element joint-theme-default" data-type="uml.Class" fill="#ffffff" stroke="none" transform="translate(1180,459)"><g class="rotatable" id="v-8992"><g class="scalable" transform="scale(1.362607421875,0.6833333333333333)"><rect class="uml-class-name-rect" id="v-8993" width="200" stroke="#ffffff" stroke-width="0.5" fill="#feb662" height="40" transform="translate(0,0)"/><rect class="uml-class-attrs-rect" id="v-8994" width="200" stroke="#fff" stroke-width="0.5" fill="#fdc886" height="80" transform="translate(0,40)"/><rect class="uml-class-methods-rect" id="v-8995" width="200" stroke="#fff" stroke-width="0.5" fill="#fdc886" display="none" height="20" transform="translate(0,120)"/></g><text class="uml-class-name-text" id="v-8996" font-size="12" xml:space="preserve" y="0.8em" text-anchor="middle" font-weight="bold" fill="black" font-family="Times New Roman" transform="matrix(1,0,0,1,136.3,8.1)"><tspan id="v-8999" class="v-line" dy="0em">รายละเอียด</tspan></text><text class="uml-class-attrs-text" id="v-8997" font-size="12" xml:space="preserve" y="0.8em" fill="black" font-family="monospace" transform="matrix(1,0,0,1,5,37.1)"><tspan id="v-9000" class="v-line" dy="0em">FLOAT(10)      ราคา</tspan><tspan id="v-9001" class="v-line" dy="1em" x="0">INT(10)        เลขที่ใบแจ้งหนี้    PK FK</tspan><tspan id="v-9002" class="v-line" dy="1em" x="0">INT(10)        เลขที่ประเภท        FK</tspan></text><text class="uml-class-methods-text" id="v-8998" font-size="12" display="none" xml:space="preserve" y="0.8em" fill="black" font-family="Times New Roman" transform="matrix(1,0,0,1,5,5)"><tspan id="v-9003" class="v-line v-empty-line" dy="0em" style="fill-opacity: 0; stroke-opacity: 0;">-</tspan></text></g></g><g model-id="ad7a52e7-9ce1-471e-a47d-4ec0af44a2f2" id="j_738" class="joint-cell joint-type-uml joint-type-uml-class joint-element joint-theme-default" data-type="uml.Class" fill="#ffffff" stroke="none" transform="translate(1186,641)"><g class="rotatable" id="v-9004"><g class="scalable" transform="scale(1.343876953125,0.6857142857142857)"><rect class="uml-class-name-rect" id="v-9005" width="200" stroke="#ffffff" stroke-width="0.5" fill="#feb662" height="40" transform="translate(0,0)"/><rect class="uml-class-attrs-rect" id="v-9006" width="200" stroke="#fff" stroke-width="0.5" fill="#fdc886" height="100" transform="translate(0,40)"/><rect class="uml-class-methods-rect" id="v-9007" width="200" stroke="#fff" stroke-width="0.5" fill="#fdc886" display="none" height="20" transform="translate(0,140)"/></g><text class="uml-class-name-text" id="v-9008" font-size="12" xml:space="preserve" y="0.8em" text-anchor="middle" font-weight="bold" fill="black" font-family="Times New Roman" transform="matrix(1,0,0,1,134.4,8.1)"><tspan id="v-9011" class="v-line" dy="0em">ประเภทค่าใช้จ่ายรายเดือน</tspan></text><text class="uml-class-attrs-text" id="v-9009" font-size="12" xml:space="preserve" y="0.8em" fill="black" font-family="monospace" transform="matrix(1,0,0,1,5,38.5)"><tspan id="v-9012" class="v-line" dy="0em">INT(10)        เลขที่ประเภท        PK</tspan><tspan id="v-9013" class="v-line" dy="1em" x="0">FLOAT(8,2)     ค่าน้ำ</tspan><tspan id="v-9014" class="v-line" dy="1em" x="0">FLOAT(8,2)     ค่าไฟ</tspan><tspan id="v-9015" class="v-line" dy="1em" x="0">FLOAT(8,2)     ค่าเช่ารายเดือน</tspan></text><text class="uml-class-methods-text" id="v-9010" font-size="12" display="none" xml:space="preserve" y="0.8em" fill="black" font-family="Times New Roman" transform="matrix(1,0,0,1,5,5)"><tspan id="v-9016" class="v-line v-empty-line" dy="0em" style="fill-opacity: 0; stroke-opacity: 0;">-</tspan></text></g></g><g model-id="40ee9550-212a-4671-bce5-fbee88f47038" id="j_739" class="joint-cell joint-type-uml joint-type-uml-class joint-element joint-theme-default" data-type="uml.Class" fill="#ffffff" stroke="none" transform="translate(450,316)"><g class="rotatable" id="v-9017"><g class="scalable" transform="scale(1.3530029296875,0.6875)"><rect class="uml-class-name-rect" id="v-9018" width="200" stroke="#ffffff" stroke-width="0.5" fill="#feb662" height="40" transform="translate(0,0)"/><rect class="uml-class-attrs-rect" id="v-9019" width="200" stroke="#fff" stroke-width="0.5" fill="#fdc886" height="120" transform="translate(0,40)"/><rect class="uml-class-methods-rect" id="v-9020" width="200" stroke="#fff" stroke-width="0.5" fill="#fdc886" display="none" height="20" transform="translate(0,160)"/></g><text class="uml-class-name-text" id="v-9021" font-size="12" xml:space="preserve" y="0.8em" text-anchor="middle" font-weight="bold" fill="black" font-family="Times New Roman" transform="matrix(1,0,0,1,135.3,8.1)"><tspan id="v-9024" class="v-line" dy="0em">สัญญา</tspan></text><text class="uml-class-attrs-text" id="v-9022" font-size="12" xml:space="preserve" y="0.8em" fill="black" font-family="monospace" transform="matrix(1,0,0,1,5,39.5)"><tspan id="v-9025" class="v-line" dy="0em">INT(10)        เลขที่สัญญา         PK</tspan><tspan id="v-9026" class="v-line" dy="1em" x="0">DATE           วันสิ้นสุด</tspan><tspan id="v-9027" class="v-line" dy="1em" x="0">VARCHAR(50)    ชื่อผู้ใช้งาน       FK</tspan><tspan id="v-9028" class="v-line" dy="1em" x="0">DATE           วันที่ทำสัญญา</tspan><tspan id="v-9029" class="v-line" dy="1em" x="0">FLOAT(8,2)     ราคา</tspan></text><text class="uml-class-methods-text" id="v-9023" font-size="12" display="none" xml:space="preserve" y="0.8em" fill="black" font-family="Times New Roman" transform="matrix(1,0,0,1,5,5)"><tspan id="v-9030" class="v-line v-empty-line" dy="0em" style="fill-opacity: 0; stroke-opacity: 0;">-</tspan></text></g></g><g model-id="3415aeae-893d-4fa3-8bce-dc96c579068e" id="j_740" class="joint-cell joint-type-uml joint-type-uml-class joint-element joint-theme-default" data-type="uml.Class" fill="#ffffff" stroke="none" transform="translate(0,323)"><g class="rotatable" id="v-9031"><g class="scalable" transform="scale(1.3530029296875,0.6857142857142857)"><rect class="uml-class-name-rect" id="v-9032" width="200" stroke="#ffffff" stroke-width="0.5" fill="#feb662" height="40" transform="translate(0,0)"/><rect class="uml-class-attrs-rect" id="v-9033" width="200" stroke="#fff" stroke-width="0.5" fill="#fdc886" height="100" transform="translate(0,40)"/><rect class="uml-class-methods-rect" id="v-9034" width="200" stroke="#fff" stroke-width="0.5" fill="#fdc886" display="none" height="20" transform="translate(0,140)"/></g><text class="uml-class-name-text" id="v-9035" font-size="12" xml:space="preserve" y="0.8em" text-anchor="middle" font-weight="bold" fill="black" font-family="Times New Roman" transform="matrix(1,0,0,1,135.3,8.9)"><tspan id="v-9038" class="v-line" dy="0em">เงื่อนไข</tspan></text><text class="uml-class-attrs-text" id="v-9036" font-size="12" xml:space="preserve" y="0.8em" fill="black" font-family="monospace" transform="matrix(1,0,0,1,5,38.5)"><tspan id="v-9039" class="v-line" dy="0em">INT(10)        เลขที่เงือนไข       PK</tspan><tspan id="v-9040" class="v-line" dy="1em" x="0">VARCHAR(50)    ชื่อเงื่อนไข</tspan><tspan id="v-9041" class="v-line" dy="1em" x="0">TEXT           เนื้อหา</tspan><tspan id="v-9042" class="v-line" dy="1em" x="0">INT(10)        เลขที่สัญญา         FK</tspan></text><text class="uml-class-methods-text" id="v-9037" font-size="12" display="none" xml:space="preserve" y="0.8em" fill="black" font-family="Times New Roman" transform="matrix(1,0,0,1,5,5)"><tspan id="v-9043" class="v-line v-empty-line" dy="0em" style="fill-opacity: 0; stroke-opacity: 0;">-</tspan></text></g></g><g model-id="c9bb9267-aac4-41d1-a39b-67171416aef4" id="j_741" class="joint-cell joint-type-uml joint-type-uml-class joint-element joint-theme-default" data-type="uml.Class" fill="#ffffff" stroke="none" transform="translate(341,570)"><g class="rotatable" id="v-9044"><g class="scalable" transform="scale(1.4684619140625,0.68)"><rect class="uml-class-name-rect" id="v-9045" width="200" stroke="#ffffff" stroke-width="0.5" fill="#feb662" height="40" transform="translate(0,0)"/><rect class="uml-class-attrs-rect" id="v-9046" width="200" stroke="#fff" stroke-width="0.5" fill="#fdc886" height="60" transform="translate(0,40)"/><rect class="uml-class-methods-rect" id="v-9047" width="200" stroke="#fff" stroke-width="0.5" fill="#fdc886" display="none" height="20" transform="translate(0,100)"/></g><text class="uml-class-name-text" id="v-9048" font-size="12" xml:space="preserve" y="0.8em" text-anchor="middle" font-weight="bold" fill="black" font-family="Times New Roman" transform="matrix(1,0,0,1,146.8,8.8)"><tspan id="v-9051" class="v-line" dy="0em">สัญญา_พื้นที่</tspan></text><text class="uml-class-attrs-text" id="v-9049" font-size="12" xml:space="preserve" y="0.8em" fill="black" font-family="monospace" transform="matrix(1,0,0,1,5,36.4)"><tspan id="v-9052" class="v-line" dy="0em">INT(10)        เลขที่สัญญา         PK FK</tspan><tspan id="v-9053" class="v-line" dy="1em" x="0">INT(10)        หมายเลขพื้นที่      PK FK</tspan></text><text class="uml-class-methods-text" id="v-9050" font-size="12" display="none" xml:space="preserve" y="0.8em" fill="black" font-family="Times New Roman" transform="matrix(1,0,0,1,5,5)"><tspan id="v-9054" class="v-line v-empty-line" dy="0em" style="fill-opacity: 0; stroke-opacity: 0;">-</tspan></text></g></g><g model-id="ea48bc7b-2b34-4c45-bb98-927e5d7383f7" id="j_742" class="joint-cell joint-type-uml joint-type-uml-class joint-element joint-theme-default" data-type="uml.Class" fill="#ffffff" stroke="none" transform="translate(292,749)"><g class="rotatable" id="v-9055"><g class="scalable" transform="scale(1.300263671875,0.6857142857142857)"><rect class="uml-class-name-rect" id="v-9056" width="200" stroke="#ffffff" stroke-width="0.5" fill="#feb662" height="40" transform="translate(0,0)"/><rect class="uml-class-attrs-rect" id="v-9057" width="200" stroke="#fff" stroke-width="0.5" fill="#fdc886" height="100" transform="translate(0,40)"/><rect class="uml-class-methods-rect" id="v-9058" width="200" stroke="#fff" stroke-width="0.5" fill="#fdc886" display="none" height="20" transform="translate(0,140)"/></g><text class="uml-class-name-text" id="v-9059" font-size="12" xml:space="preserve" y="0.8em" text-anchor="middle" font-weight="bold" fill="black" font-family="Times New Roman" transform="matrix(1,0,0,1,130,8.9)"><tspan id="v-9062" class="v-line" dy="0em">พื้นที่</tspan></text><text class="uml-class-attrs-text" id="v-9060" font-size="12" xml:space="preserve" y="0.8em" fill="black" font-family="monospace" transform="matrix(1,0,0,1,5,38.5)"><tspan id="v-9063" class="v-line" dy="0em">INT(10)        หมายเลขพื้นที่      PK</tspan><tspan id="v-9064" class="v-line" dy="1em" x="0">ENUM('เสื้อผ้า'ประเภทพื้นที่</tspan><tspan id="v-9065" class="v-line" dy="1em" x="0">FLOAT(8,2)     ราคา</tspan><tspan id="v-9066" class="v-line" dy="1em" x="0">BOOLEAN        สถานะ</tspan></text><text class="uml-class-methods-text" id="v-9061" font-size="12" display="none" xml:space="preserve" y="0.8em" fill="black" font-family="Times New Roman" transform="matrix(1,0,0,1,5,5)"><tspan id="v-9067" class="v-line v-empty-line" dy="0em" style="fill-opacity: 0; stroke-opacity: 0;">-</tspan></text></g></g><g model-id="9000c894-11d5-4dac-b46f-0632aeceafb0" id="j_743" class="joint-cell joint-type-uml joint-type-uml-class joint-element joint-theme-default" data-type="uml.Class" fill="#ffffff" stroke="none" transform="translate(763,590)"><g class="rotatable" id="v-9068"><g class="scalable" transform="scale(1.3530029296875,0.6833333333333333)"><rect class="uml-class-name-rect" id="v-9069" width="200" stroke="#ffffff" stroke-width="0.5" fill="#feb662" height="40" transform="translate(0,0)"/><rect class="uml-class-attrs-rect" id="v-9070" width="200" stroke="#fff" stroke-width="0.5" fill="#fdc886" height="80" transform="translate(0,40)"/><rect class="uml-class-methods-rect" id="v-9071" width="200" stroke="#fff" stroke-width="0.5" fill="#fdc886" display="none" height="20" transform="translate(0,120)"/></g><text class="uml-class-name-text" id="v-9072" font-size="12" xml:space="preserve" y="0.8em" text-anchor="middle" font-weight="bold" fill="black" font-family="Times New Roman" transform="matrix(1,0,0,1,135.3,8.1)"><tspan id="v-9075" class="v-line" dy="0em">การชำระเงิน</tspan></text><text class="uml-class-attrs-text" id="v-9073" font-size="12" xml:space="preserve" y="0.8em" fill="black" font-family="monospace" transform="matrix(1,0,0,1,5,37.1)"><tspan id="v-9076" class="v-line" dy="0em">FLOAT(8,2)     ค่ามัดจำการจอง</tspan><tspan id="v-9077" class="v-line" dy="1em" x="0">FLOAT(8,2)     ค่าล่วงหน้าการเช่า</tspan><tspan id="v-9078" class="v-line" dy="1em" x="0">INT(10)        เลขที่สัญญา         FK</tspan></text><text class="uml-class-methods-text" id="v-9074" font-size="12" display="none" xml:space="preserve" y="0.8em" fill="black" font-family="Times New Roman" transform="matrix(1,0,0,1,5,5)"><tspan id="v-9079" class="v-line v-empty-line" dy="0em" style="fill-opacity: 0; stroke-opacity: 0;">-</tspan></text></g></g><g model-id="cfdc9eef-ba15-4a90-8f6c-4589c15f3705" id="j_744" class="joint-cell joint-type-uml joint-type-uml-relationship joint-type-uml-relationship-nonidentifying joint-type-uml-relationship-nonidentifying-optional_one_optional_many joint-link joint-theme-default" data-type="uml.relationship.nonidentifying.optional_one_optional_many" fill="transparent"><path class="connection" stroke="black" d="M 1126 276 1029 255" id="v-9090" stroke-dasharray="3,3"/><path class="marker-source" fill="none" stroke="black" d="M 0 0 L 10 10 L 0 10 L 10 10 L 0 20 L 10 10 a 5,5 0 1,0 10,0 a 5,5 0 1,0 -10,0" id="v-9088" transform="translate(1143.904657080955,289.7780391495877) scale(1,1) rotate(-167.90524291992188)"/><path class="marker-target" fill="none" stroke="black" d="M 10 0 L 10 20 L 10 10 L 0 10 L 14 10 a 5,5 0 1,0 10,0 a 5,5 0 1,0 -10,0" id="v-9089" transform="translate(1008.0953044971626,240.2219700556584) scale(1,1) rotate(12.094757080078168)"/><path class="connection-wrap" d="M 1126 276 1029 255"/><g class="labels"><g class="label" id="v-9084" label-idx="0" cursor="default" transform="translate(1077.5, 265.5)" fill="black"><rect id="v-9086" fill="white" rx="3" ry="3" width="53.875" height="16.078125476837158" transform="matrix(1,0,0,1,-26.9,-8.1)"/><text id="v-9085" font-size="14" xml:space="preserve" y="0.8em" text-anchor="middle" pointer-events="none" transform="matrix(1,0,0,1,0,-6.4)"><tspan id="v-9087" class="v-line" dy="0em">ชำระเงิน</tspan></text></g></g></g><g model-id="ceb9ef64-2e79-47e7-b05f-6c32be270486" id="j_745" class="joint-cell joint-type-uml joint-type-uml-relationship joint-type-uml-relationship-identifying joint-type-uml-relationship-identifying-optional_one_mandatory_one joint-link joint-theme-default" data-type="uml.relationship.identifying.optional_one_mandatory_one" fill="transparent"><path class="connection" stroke="black" d="M 871 165 871 134"/><path class="marker-source" fill="none" stroke="black" d="M 0 0 L 10 0 M 10 0 L 10 10 L 10 -10 M 15 0 L 15 10 L 15 -10" id="v-9099" transform="translate(871,180) scale(1,1) rotate(-90)"/><path class="marker-target" fill="none" stroke="black" d="M 10 0 L 10 20 L 10 10 L 0 10 L 14 10 a 5,5 0 1,0 10,0 a 5,5 0 1,0 -10,0" id="v-9100" transform="translate(881,110) scale(1,1) rotate(-270)"/><path class="connection-wrap" d="M 871 165 871 134"/><g class="labels"><g class="label" id="v-9095" label-idx="0" cursor="default" transform="translate(871, 149.5)" fill="black"><rect id="v-9097" fill="white" rx="3" ry="3" width="0" height="0" transform="matrix(1,0,0,1,0,0)"/><text id="v-9096" font-size="14" display="none" xml:space="preserve" y="0.8em" text-anchor="middle" pointer-events="none"><tspan id="v-9098" class="v-line v-empty-line" dy="0em" style="fill-opacity: 0; stroke-opacity: 0;">-</tspan></text></g></g></g><g model-id="79b7cdb3-fcce-4f1c-8094-0aa5ee515641" id="j_746" class="joint-cell joint-type-uml joint-type-uml-relationship joint-type-uml-relationship-identifying joint-type-uml-relationship-identifying-optional_one_optional_many joint-link joint-theme-default" data-type="uml.relationship.identifying.optional_one_optional_many" fill="transparent"><path class="connection" stroke="black" d="M 1307 439 1300 396"/><path class="marker-source" fill="none" stroke="black" d="M 0 0 L 10 10 L 0 10 L 10 10 L 0 20 L 10 10 a 5,5 0 1,0 10,0 a 5,5 0 1,0 -10,0" id="v-9109" transform="translate(1300.1270251209737,460.588756490756) scale(1,1) rotate(-99.14163970947266)"/><path class="marker-target" fill="none" stroke="black" d="M 10 0 L 10 20 L 10 10 L 0 10 L 14 10 a 5,5 0 1,0 10,0 a 5,5 0 1,0 -10,0" id="v-9110" transform="translate(1305.8729744347445,370.41125673580103) scale(1,1) rotate(80.85836791992193)"/><path class="connection-wrap" d="M 1307 439 1300 396"/><g class="labels"><g class="label" id="v-9105" label-idx="0" cursor="default" transform="translate(1303.5, 417.5)" fill="black"><rect id="v-9107" fill="white" rx="3" ry="3" width="9.390625" height="16.000000476837158" transform="matrix(1,0,0,1,-4.7,-8)"/><text id="v-9106" font-size="14" xml:space="preserve" y="0.8em" text-anchor="middle" pointer-events="none" transform="matrix(1,0,0,1,0,-6.4)"><tspan id="v-9108" class="v-line" dy="0em">มี</tspan></text></g></g></g><g model-id="4c80fe33-c6c1-486e-bab4-75f9acf41c9c" id="j_747" class="joint-cell joint-type-uml joint-type-uml-relationship joint-type-uml-relationship-nonidentifying joint-type-uml-relationship-nonidentifying-optional_one_optional_many joint-link joint-theme-default" data-type="uml.relationship.nonidentifying.optional_one_optional_many" fill="transparent"><path class="connection" stroke="black" d="M 1317 561 1319 617" id="v-9121" stroke-dasharray="3,3"/><path class="marker-source" fill="none" stroke="black" d="M 0 0 L 10 10 L 0 10 L 10 10 L 0 20 L 10 10 a 5,5 0 1,0 10,0 a 5,5 0 1,0 -10,0" id="v-9119" transform="translate(1326.9979936970872,540.8000270894793) scale(1,1) rotate(88.854248046875)"/><path class="marker-target" fill="none" stroke="black" d="M 10 0 L 10 20 L 10 10 L 0 10 L 14 10 a 5,5 0 1,0 10,0 a 5,5 0 1,0 -10,0" id="v-9120" transform="translate(1309.0019604871316,641.1999405483789) scale(1,1) rotate(-91.14575958251953)"/><path class="connection-wrap" d="M 1317 561 1319 617"/><g class="labels"><g class="label" id="v-9115" label-idx="0" cursor="default" transform="translate(1318, 589)" fill="black"><rect id="v-9117" fill="white" rx="3" ry="3" width="9.390625" height="16.000000476837158" transform="matrix(1,0,0,1,-4.7,-8)"/><text id="v-9116" font-size="14" xml:space="preserve" y="0.8em" text-anchor="middle" pointer-events="none" transform="matrix(1,0,0,1,0,-6.4)"><tspan id="v-9118" class="v-line" dy="0em">มี</tspan></text></g></g></g><g model-id="a38cb7b4-77e6-44a1-be6d-a6e05192f465" id="j_748" class="joint-cell joint-type-uml joint-type-uml-relationship joint-type-uml-relationship-nonidentifying joint-type-uml-relationship-nonidentifying-mandatory_one_optional_many joint-link joint-theme-default" data-type="uml.relationship.nonidentifying.mandatory_one_optional_many" fill="transparent"><path class="connection" stroke="black" d="M 708 307 780 269" id="v-9132" stroke-dasharray="3,3"/><path class="marker-source" fill="none" stroke="black" d="M 0 0 L 10 10 L 0 10 L 10 10 L 0 20 L 10 10 a 5,5 0 1,0 10,0 a 5,5 0 1,0 -10,0" id="v-9130" transform="translate(685.3567139722253,307.1433709515016) scale(1,1) rotate(-27.666757583618157)"/><path class="marker-target" fill="none" stroke="black" d="M 0 0 L 10 0 M 10 0 L 10 10 L 10 -10 M 15 0 L 15 10 L 15 -10" id="v-9131" transform="translate(793.0000173968784,261.99998969425076) scale(1,1) rotate(-207.66676330566403)"/><path class="connection-wrap" d="M 708 307 780 269"/><g class="labels"><g class="label" id="v-9126" label-idx="0" cursor="default" transform="translate(744, 288)" fill="black"><rect id="v-9128" fill="white" rx="3" ry="3" width="17.609375" height="16.000000476837158" transform="matrix(1,0,0,1,-8.8,-8)"/><text id="v-9127" font-size="14" xml:space="preserve" y="0.8em" text-anchor="middle" pointer-events="none" transform="matrix(1,0,0,1,0,-6.4)"><tspan id="v-9129" class="v-line" dy="0em">ทำ</tspan></text></g></g></g><g model-id="d7f93b10-f681-42f9-8746-92114aec9611" id="j_749" class="joint-cell joint-type-uml joint-type-uml-relationship joint-type-uml-relationship-nonidentifying joint-type-uml-relationship-nonidentifying-mandatory_one_optional_one joint-link joint-theme-default" data-type="uml.relationship.nonidentifying.mandatory_one_optional_one" fill="transparent"><path class="connection" stroke="black" d="M 295 371 435 371" id="v-9143" stroke-dasharray="3,3"/><path class="marker-source" fill="none" stroke="black" d="M 10 0 L 10 20 L 10 10 L 0 10 L 14 10 a 5,5 0 1,0 10,0 a 5,5 0 1,0 -10,0" id="v-9141" transform="translate(271,361) scale(1,1) rotate(0)"/><path class="marker-target" fill="none" stroke="black" d="M 0 0 L 10 0 M 10 0 L 10 10 L 10 -10 M 15 0 L 15 10 L 15 -10" id="v-9142" transform="translate(450,371) scale(1,1) rotate(-180)"/><path class="connection-wrap" d="M 295 371 435 371"/><g class="labels"><g class="label" id="v-9137" label-idx="0" cursor="default" transform="translate(365, 371)" fill="black"><rect id="v-9139" fill="white" rx="3" ry="3" width="50.09375" height="16.000000476837158" transform="matrix(1,0,0,1,-25,-8)"/><text id="v-9138" font-size="14" xml:space="preserve" y="0.8em" text-anchor="middle" pointer-events="none" transform="matrix(1,0,0,1,0,-6.4)"><tspan id="v-9140" class="v-line" dy="0em">เป็นของ</tspan></text></g></g></g><g model-id="1b9a9150-adc7-4449-bbf9-e3eba8f1113d" id="j_750" class="joint-cell joint-type-uml joint-type-uml-relationship joint-type-uml-relationship-identifying joint-type-uml-relationship-identifying-mandatory_one_mandatory_many joint-link joint-theme-default" data-type="uml.relationship.identifying.mandatory_one_mandatory_many" fill="transparent"><path class="connection" stroke="black" d="M 506 561 556 440"/><path class="marker-source" fill="none" stroke="black" d="M 0 0 L 10 10 L 0 10 L 10 10 L 0 20 L 10 10" id="v-9152" transform="translate(492.76921902539823,566.1538742325317) scale(1,1) rotate(-67.38013458251953)"/><path class="marker-target" fill="none" stroke="black" d="M 0 0 L 10 0 M 10 0 L 10 10 L 10 -10 M 15 0 L 15 10 L 15 -10" id="v-9153" transform="translate(561.999970964787,425.9999879019947) scale(1,1) rotate(-247.3801422119141)"/><path class="connection-wrap" d="M 506 561 556 440"/><g class="labels"><g class="label" id="v-9148" label-idx="0" cursor="default" transform="translate(531, 500.5)" fill="black"><rect id="v-9150" fill="white" rx="3" ry="3" width="50.09375" height="16.000000476837158" transform="matrix(1,0,0,1,-25,-8)"/><text id="v-9149" font-size="14" xml:space="preserve" y="0.8em" text-anchor="middle" pointer-events="none" transform="matrix(1,0,0,1,0,-6.4)"><tspan id="v-9151" class="v-line" dy="0em">เป็นของ</tspan></text></g></g></g><g model-id="72d03252-c553-42d2-9d10-9e927d3d0795" id="j_751" class="joint-cell joint-type-uml joint-type-uml-relationship joint-type-uml-relationship-identifying joint-type-uml-relationship-identifying-mandatory_one_optional_many joint-link joint-theme-default" data-type="uml.relationship.identifying.mandatory_one_optional_many" fill="transparent"><path class="connection" stroke="black" d="M 470 657 443 735"/><path class="marker-source" fill="none" stroke="black" d="M 0 0 L 10 10 L 0 10 L 10 10 L 0 20 L 10 10 a 5,5 0 1,0 10,0 a 5,5 0 1,0 -10,0" id="v-9162" transform="translate(485.46094660961353,641.2388711703991) scale(1,1) rotate(-251.10174560546872)"/><path class="marker-target" fill="none" stroke="black" d="M 0 0 L 10 0 M 10 0 L 10 10 L 10 -10 M 15 0 L 15 10 L 15 -10" id="v-9163" transform="translate(438.0000051904327,749.0000114012541) scale(1,1) rotate(-71.10175323486328)"/><path class="connection-wrap" d="M 470 657 443 735"/><g class="labels"><g class="label" id="v-9158" label-idx="0" cursor="default" transform="translate(456.5, 696)" fill="black"><rect id="v-9160" fill="white" rx="3" ry="3" width="50.09375" height="16.000000476837158" transform="matrix(1,0,0,1,-25,-8)"/><text id="v-9159" font-size="14" xml:space="preserve" y="0.8em" text-anchor="middle" pointer-events="none" transform="matrix(1,0,0,1,0,-6.4)"><tspan id="v-9161" class="v-line" dy="0em">เป็นของ</tspan></text></g></g></g><g model-id="a77f9adf-9d34-4c6c-8f6d-fb1157332a11" id="j_752" class="joint-cell joint-type-uml joint-type-uml-relationship joint-type-uml-relationship-identifying joint-type-uml-relationship-identifying-mandatory_one_optional_one joint-link joint-theme-default" data-type="uml.relationship.identifying.mandatory_one_optional_one" fill="transparent"><path class="connection" stroke="black" d="M 831 575 664 436"/><path class="marker-source" fill="none" stroke="black" d="M 10 0 L 10 20 L 10 10 L 0 10 L 14 10 a 5,5 0 1,0 10,0 a 5,5 0 1,0 -10,0" id="v-9172" transform="translate(842.6020136876609,597.6854041352819) scale(1,1) rotate(-140.22305297851562)"/><path class="marker-target" fill="none" stroke="black" d="M 0 0 L 10 0 M 10 0 L 10 10 L 10 -10 M 15 0 L 15 10 L 15 -10" id="v-9173" transform="translate(651.9999805125973,425.9999884677765) scale(1,1) rotate(39.776947021484375)"/><path class="connection-wrap" d="M 831 575 664 436"/><g class="labels"><g class="label" id="v-9168" label-idx="0" cursor="default" transform="translate(747.5, 505.5)" fill="black"><rect id="v-9170" fill="white" rx="3" ry="3" width="9.390625" height="16.000000476837158" transform="matrix(1,0,0,1,-4.7,-8)"/><text id="v-9169" font-size="14" xml:space="preserve" y="0.8em" text-anchor="middle" pointer-events="none" transform="matrix(1,0,0,1,0,-6.4)"><tspan id="v-9171" class="v-line" dy="0em">มี</tspan></text></g></g></g></g><defs id="v-4"/></svg>