<?xml version="1.0" standalone="no"?>
<svg xmlns="http://www.w3.org/2000/svg" xmlns:xlink="http://www.w3.org/1999/xlink" version="1.1" id="v-2" width="100%" height="100%" xmlns:ev="http://www.w3.org/2001/xml-events" style="overflow: hidden; "><g id="v-3" class="joint-viewport svg-pan-zoom_viewport" transform="matrix(1,0,0,1,0,0)" style="transform: matrix(1, 0, 0, 1, 0, 0);"><g model-id="575fdb2c-09b9-47f2-a1b9-a1bc24172b53" id="j_94" class="joint-cell joint-type-uml joint-type-uml-class joint-element joint-theme-default" data-type="uml.Class" fill="#ffffff" stroke="none" transform="translate(747,0)"><g class="rotatable" id="v-1076"><g class="scalable" transform="scale(1.2394921875,0.6875)"><rect class="uml-class-name-rect" id="v-1077" width="200" stroke="#ffffff" stroke-width="0.5" fill="#feb662" height="40" transform="translate(0,0)"/><rect class="uml-class-attrs-rect" id="v-1078" width="200" stroke="#fff" stroke-width="0.5" fill="#fdc886" height="120" transform="translate(0,40)"/><rect class="uml-class-methods-rect" id="v-1079" width="200" stroke="#fff" stroke-width="0.5" fill="#fdc886" display="none" height="20" transform="translate(0,160)"/></g><text class="uml-class-name-text" id="v-1080" font-size="12" xml:space="preserve" y="0.8em" text-anchor="middle" font-weight="bold" fill="black" font-family="Times New Roman" transform="matrix(1,0,0,1,123.9,8.1)"><tspan id="v-1083" class="v-line" dy="0em">ผู้ใช้งาน</tspan></text><text class="uml-class-attrs-text" id="v-1081" font-size="12" xml:space="preserve" y="0.8em" fill="black" font-family="monospace" transform="matrix(1,0,0,1,5,39.5)"><tspan id="v-1084" class="v-line" dy="0em">VARCHAR(50)    ชื่อผู้ใช้งาน       PK</tspan><tspan id="v-1085" class="v-line" dy="1em" x="0">VARCHAR(50)    รหัสผ่าน</tspan><tspan id="v-1086" class="v-line" dy="1em" x="0">VARCHAR(50)    ชื่อจริง</tspan><tspan id="v-1087" class="v-line" dy="1em" x="0">VARCHAR(50)    นามสกุล</tspan><tspan id="v-1088" class="v-line" dy="1em" x="0">ENUM('ผู้บริหารประเภท</tspan></text><text class="uml-class-methods-text" id="v-1082" font-size="12" display="none" xml:space="preserve" y="0.8em" fill="black" font-family="Times New Roman" transform="matrix(1,0,0,1,5,5)"><tspan id="v-1089" class="v-line v-empty-line" dy="0em" style="fill-opacity: 0; stroke-opacity: 0;">-</tspan></text></g></g><g model-id="973849f9-6a02-4f33-868a-7f97e9422dda" id="j_95" class="joint-cell joint-type-uml joint-type-uml-class joint-element joint-theme-default" data-type="uml.Class" fill="#ffffff" stroke="none" transform="translate(1146,248)"><g class="rotatable" id="v-1090"><g class="scalable" transform="scale(1.40150390625,0.6888888888888889)"><rect class="uml-class-name-rect" id="v-1091" width="200" stroke="#ffffff" stroke-width="0.5" fill="#feb662" height="40" transform="translate(0,0)"/><rect class="uml-class-attrs-rect" id="v-1092" width="200" stroke="#fff" stroke-width="0.5" fill="#fdc886" height="140" transform="translate(0,40)"/><rect class="uml-class-methods-rect" id="v-1093" width="200" stroke="#fff" stroke-width="0.5" fill="#fdc886" display="none" height="20" transform="translate(0,180)"/></g><text class="uml-class-name-text" id="v-1094" font-size="12" xml:space="preserve" y="0.8em" text-anchor="middle" font-weight="bold" fill="black" font-family="Times New Roman" transform="matrix(1,0,0,1,140.2,8.2)"><tspan id="v-1097" class="v-line" dy="0em">ค่าใช้จ่ายรายเดือน</tspan></text><text class="uml-class-attrs-text" id="v-1095" font-size="12" xml:space="preserve" y="0.8em" fill="black" font-family="monospace" transform="matrix(1,0,0,1,5,40.6)"><tspan id="v-1098" class="v-line" dy="0em">INT(10)        เลขที่ใบแจ้งหนี้    PK</tspan><tspan id="v-1099" class="v-line" dy="1em" x="0">INT(10)        ราคารวม             AI</tspan><tspan id="v-1100" class="v-line" dy="1em" x="0">VARCHAR(200)   สลิป</tspan><tspan id="v-1101" class="v-line" dy="1em" x="0">VARCHAR(10)    เดือน</tspan><tspan id="v-1102" class="v-line" dy="1em" x="0">DATE           วันที่ชำระ</tspan><tspan id="v-1103" class="v-line" dy="1em" x="0">VARCHAR(50)    ชื่อผู้ใช้งาน       FK</tspan></text><text class="uml-class-methods-text" id="v-1096" font-size="12" display="none" xml:space="preserve" y="0.8em" fill="black" font-family="Times New Roman" transform="matrix(1,0,0,1,5,5)"><tspan id="v-1104" class="v-line v-empty-line" dy="0em" style="fill-opacity: 0; stroke-opacity: 0;">-</tspan></text></g></g><g model-id="3304321d-e390-4e39-8de0-cf640925c32f" id="j_96" class="joint-cell joint-type-uml joint-type-uml-class joint-element joint-theme-default" data-type="uml.Class" fill="#ffffff" stroke="none" transform="translate(735,180)"><g class="rotatable" id="v-1105"><g class="scalable" transform="scale(1.354951171875,0.6833333333333333)"><rect class="uml-class-name-rect" id="v-1106" width="200" stroke="#ffffff" stroke-width="0.5" fill="#feb662" height="40" transform="translate(0,0)"/><rect class="uml-class-attrs-rect" id="v-1107" width="200" stroke="#fff" stroke-width="0.5" fill="#fdc886" height="80" transform="translate(0,40)"/><rect class="uml-class-methods-rect" id="v-1108" width="200" stroke="#fff" stroke-width="0.5" fill="#fdc886" display="none" height="20" transform="translate(0,120)"/></g><text class="uml-class-name-text" id="v-1109" font-size="12" xml:space="preserve" y="0.8em" text-anchor="middle" font-weight="bold" fill="black" font-family="Times New Roman" transform="matrix(1,0,0,1,135.5,8.1)"><tspan id="v-1112" class="v-line" dy="0em">ลูกค้า</tspan></text><text class="uml-class-attrs-text" id="v-1110" font-size="12" xml:space="preserve" y="0.8em" fill="black" font-family="monospace" transform="matrix(1,0,0,1,5,37.5)"><tspan id="v-1113" class="v-line" dy="0em">TEXT           ที่อยู่</tspan><tspan id="v-1114" class="v-line" dy="1em" x="0">ENUM('ชาย','หญิเพศ</tspan><tspan id="v-1115" class="v-line" dy="1em" x="0">VARCHAR(50)    ชื่อผู้ใช้งาน       PK FK</tspan></text><text class="uml-class-methods-text" id="v-1111" font-size="12" display="none" xml:space="preserve" y="0.8em" fill="black" font-family="Times New Roman" transform="matrix(1,0,0,1,5,5)"><tspan id="v-1116" class="v-line v-empty-line" dy="0em" style="fill-opacity: 0; stroke-opacity: 0;">-</tspan></text></g></g><g model-id="ce470490-4fa3-4db1-8ca3-c5f8d0cac535" id="j_97" class="joint-cell joint-type-uml joint-type-uml-class joint-element joint-theme-default" data-type="uml.Class" fill="#ffffff" stroke="none" transform="translate(1180,459)"><g class="rotatable" id="v-1117"><g class="scalable" transform="scale(1.362607421875,0.6833333333333333)"><rect class="uml-class-name-rect" id="v-1118" width="200" stroke="#ffffff" stroke-width="0.5" fill="#feb662" height="40" transform="translate(0,0)"/><rect class="uml-class-attrs-rect" id="v-1119" width="200" stroke="#fff" stroke-width="0.5" fill="#fdc886" height="80" transform="translate(0,40)"/><rect class="uml-class-methods-rect" id="v-1120" width="200" stroke="#fff" stroke-width="0.5" fill="#fdc886" display="none" height="20" transform="translate(0,120)"/></g><text class="uml-class-name-text" id="v-1121" font-size="12" xml:space="preserve" y="0.8em" text-anchor="middle" font-weight="bold" fill="black" font-family="Times New Roman" transform="matrix(1,0,0,1,136.3,8.1)"><tspan id="v-1124" class="v-line" dy="0em">รายละเอียด</tspan></text><text class="uml-class-attrs-text" id="v-1122" font-size="12" xml:space="preserve" y="0.8em" fill="black" font-family="monospace" transform="matrix(1,0,0,1,5,37.1)"><tspan id="v-1125" class="v-line" dy="0em">FLOAT(10)      ราคา</tspan><tspan id="v-1126" class="v-line" dy="1em" x="0">INT(10)        เลขที่ใบแจ้งหนี้    PK FK</tspan><tspan id="v-1127" class="v-line" dy="1em" x="0">INT(10)        เลขที่ประเภท        FK</tspan></text><text class="uml-class-methods-text" id="v-1123" font-size="12" display="none" xml:space="preserve" y="0.8em" fill="black" font-family="Times New Roman" transform="matrix(1,0,0,1,5,5)"><tspan id="v-1128" class="v-line v-empty-line" dy="0em" style="fill-opacity: 0; stroke-opacity: 0;">-</tspan></text></g></g><g model-id="17662f54-957f-4ee5-b7bd-4b5552e50aa4" id="j_98" class="joint-cell joint-type-uml joint-type-uml-class joint-element joint-theme-default" data-type="uml.Class" fill="#ffffff" stroke="none" transform="translate(1186,641)"><g class="rotatable" id="v-1129"><g class="scalable" transform="scale(1.343876953125,0.6857142857142857)"><rect class="uml-class-name-rect" id="v-1130" width="200" stroke="#ffffff" stroke-width="0.5" fill="#feb662" height="40" transform="translate(0,0)"/><rect class="uml-class-attrs-rect" id="v-1131" width="200" stroke="#fff" stroke-width="0.5" fill="#fdc886" height="100" transform="translate(0,40)"/><rect class="uml-class-methods-rect" id="v-1132" width="200" stroke="#fff" stroke-width="0.5" fill="#fdc886" display="none" height="20" transform="translate(0,140)"/></g><text class="uml-class-name-text" id="v-1133" font-size="12" xml:space="preserve" y="0.8em" text-anchor="middle" font-weight="bold" fill="black" font-family="Times New Roman" transform="matrix(1,0,0,1,134.4,8.1)"><tspan id="v-1136" class="v-line" dy="0em">ประเภทค่าใช้จ่ายรายเดือน</tspan></text><text class="uml-class-attrs-text" id="v-1134" font-size="12" xml:space="preserve" y="0.8em" fill="black" font-family="monospace" transform="matrix(1,0,0,1,5,38.5)"><tspan id="v-1137" class="v-line" dy="0em">INT(10)        เลขที่ประเภท        PK</tspan><tspan id="v-1138" class="v-line" dy="1em" x="0">FLOAT(8,2)     ค่าน้ำ</tspan><tspan id="v-1139" class="v-line" dy="1em" x="0">FLOAT(8,2)     ค่าไฟ</tspan><tspan id="v-1140" class="v-line" dy="1em" x="0">FLOAT(8,2)     ค่าเช่ารายเดือน</tspan></text><text class="uml-class-methods-text" id="v-1135" font-size="12" display="none" xml:space="preserve" y="0.8em" fill="black" font-family="Times New Roman" transform="matrix(1,0,0,1,5,5)"><tspan id="v-1141" class="v-line v-empty-line" dy="0em" style="fill-opacity: 0; stroke-opacity: 0;">-</tspan></text></g></g><g model-id="684abbf7-9526-4103-b18f-820f638e7905" id="j_99" class="joint-cell joint-type-uml joint-type-uml-class joint-element joint-theme-default" data-type="uml.Class" fill="#ffffff" stroke="none" transform="translate(450,316)"><g class="rotatable" id="v-1142"><g class="scalable" transform="scale(1.3530029296875,0.6857142857142857)"><rect class="uml-class-name-rect" id="v-1143" width="200" stroke="#ffffff" stroke-width="0.5" fill="#feb662" height="40" transform="translate(0,0)"/><rect class="uml-class-attrs-rect" id="v-1144" width="200" stroke="#fff" stroke-width="0.5" fill="#fdc886" height="100" transform="translate(0,40)"/><rect class="uml-class-methods-rect" id="v-1145" width="200" stroke="#fff" stroke-width="0.5" fill="#fdc886" display="none" height="20" transform="translate(0,140)"/></g><text class="uml-class-name-text" id="v-1146" font-size="12" xml:space="preserve" y="0.8em" text-anchor="middle" font-weight="bold" fill="black" font-family="Times New Roman" transform="matrix(1,0,0,1,135.3,8.1)"><tspan id="v-1149" class="v-line" dy="0em">สัญญา</tspan></text><text class="uml-class-attrs-text" id="v-1147" font-size="12" xml:space="preserve" y="0.8em" fill="black" font-family="monospace" transform="matrix(1,0,0,1,5,38.5)"><tspan id="v-1150" class="v-line" dy="0em">INT(10)        เลขที่สัญญา         PK</tspan><tspan id="v-1151" class="v-line" dy="1em" x="0">DATE           วันสิ้นสุด</tspan><tspan id="v-1152" class="v-line" dy="1em" x="0">VARCHAR(50)    ชื่อผู้ใช้งาน       FK</tspan><tspan id="v-1153" class="v-line" dy="1em" x="0">DATE           วันที่ทำสัญญา</tspan></text><text class="uml-class-methods-text" id="v-1148" font-size="12" display="none" xml:space="preserve" y="0.8em" fill="black" font-family="Times New Roman" transform="matrix(1,0,0,1,5,5)"><tspan id="v-1154" class="v-line v-empty-line" dy="0em" style="fill-opacity: 0; stroke-opacity: 0;">-</tspan></text></g></g><g model-id="21945136-a3ad-4bba-9c09-b0d7d6b6ae60" id="j_100" class="joint-cell joint-type-uml joint-type-uml-class joint-element joint-theme-default" data-type="uml.Class" fill="#ffffff" stroke="none" transform="translate(0,323)"><g class="rotatable" id="v-1155"><g class="scalable" transform="scale(1.3530029296875,0.6857142857142857)"><rect class="uml-class-name-rect" id="v-1156" width="200" stroke="#ffffff" stroke-width="0.5" fill="#feb662" height="40" transform="translate(0,0)"/><rect class="uml-class-attrs-rect" id="v-1157" width="200" stroke="#fff" stroke-width="0.5" fill="#fdc886" height="100" transform="translate(0,40)"/><rect class="uml-class-methods-rect" id="v-1158" width="200" stroke="#fff" stroke-width="0.5" fill="#fdc886" display="none" height="20" transform="translate(0,140)"/></g><text class="uml-class-name-text" id="v-1159" font-size="12" xml:space="preserve" y="0.8em" text-anchor="middle" font-weight="bold" fill="black" font-family="Times New Roman" transform="matrix(1,0,0,1,135.3,8.9)"><tspan id="v-1162" class="v-line" dy="0em">เงื่อนไข</tspan></text><text class="uml-class-attrs-text" id="v-1160" font-size="12" xml:space="preserve" y="0.8em" fill="black" font-family="monospace" transform="matrix(1,0,0,1,5,38.5)"><tspan id="v-1163" class="v-line" dy="0em">INT(10)        เลขที่เงือนไข       PK</tspan><tspan id="v-1164" class="v-line" dy="1em" x="0">VARCHAR(50)    ชื่อเงื่อนไข</tspan><tspan id="v-1165" class="v-line" dy="1em" x="0">TEXT           เนื้อหา</tspan><tspan id="v-1166" class="v-line" dy="1em" x="0">INT(10)        เลขที่สัญญา         FK</tspan></text><text class="uml-class-methods-text" id="v-1161" font-size="12" display="none" xml:space="preserve" y="0.8em" fill="black" font-family="Times New Roman" transform="matrix(1,0,0,1,5,5)"><tspan id="v-1167" class="v-line v-empty-line" dy="0em" style="fill-opacity: 0; stroke-opacity: 0;">-</tspan></text></g></g><g model-id="c2516185-3b10-4162-918f-29c605a68828" id="j_101" class="joint-cell joint-type-uml joint-type-uml-class joint-element joint-theme-default" data-type="uml.Class" fill="#ffffff" stroke="none" transform="translate(341,570)"><g class="rotatable" id="v-1168"><g class="scalable" transform="scale(1.4684619140625,0.6833333333333333)"><rect class="uml-class-name-rect" id="v-1169" width="200" stroke="#ffffff" stroke-width="0.5" fill="#feb662" height="40" transform="translate(0,0)"/><rect class="uml-class-attrs-rect" id="v-1170" width="200" stroke="#fff" stroke-width="0.5" fill="#fdc886" height="80" transform="translate(0,40)"/><rect class="uml-class-methods-rect" id="v-1171" width="200" stroke="#fff" stroke-width="0.5" fill="#fdc886" display="none" height="20" transform="translate(0,120)"/></g><text class="uml-class-name-text" id="v-1172" font-size="12" xml:space="preserve" y="0.8em" text-anchor="middle" font-weight="bold" fill="black" font-family="Times New Roman" transform="matrix(1,0,0,1,146.8,8.9)"><tspan id="v-1175" class="v-line" dy="0em">สัญญา_พื้นที่</tspan></text><text class="uml-class-attrs-text" id="v-1173" font-size="12" xml:space="preserve" y="0.8em" fill="black" font-family="monospace" transform="matrix(1,0,0,1,5,37.5)"><tspan id="v-1176" class="v-line" dy="0em">INT(10)        เลขที่สัญญา         PK FK</tspan><tspan id="v-1177" class="v-line" dy="1em" x="0">INT(10)        หมายเลขพื้นที่      PK FK</tspan><tspan id="v-1178" class="v-line" dy="1em" x="0">FLOAT(8,2)     ราคา</tspan></text><text class="uml-class-methods-text" id="v-1174" font-size="12" display="none" xml:space="preserve" y="0.8em" fill="black" font-family="Times New Roman" transform="matrix(1,0,0,1,5,5)"><tspan id="v-1179" class="v-line v-empty-line" dy="0em" style="fill-opacity: 0; stroke-opacity: 0;">-</tspan></text></g></g><g model-id="2cd7b180-08c7-431c-ba0c-5f5a9ac4284a" id="j_102" class="joint-cell joint-type-uml joint-type-uml-class joint-element joint-theme-default" data-type="uml.Class" fill="#ffffff" stroke="none" transform="translate(292,749)"><g class="rotatable" id="v-1180"><g class="scalable" transform="scale(1.300263671875,0.6857142857142857)"><rect class="uml-class-name-rect" id="v-1181" width="200" stroke="#ffffff" stroke-width="0.5" fill="#feb662" height="40" transform="translate(0,0)"/><rect class="uml-class-attrs-rect" id="v-1182" width="200" stroke="#fff" stroke-width="0.5" fill="#fdc886" height="100" transform="translate(0,40)"/><rect class="uml-class-methods-rect" id="v-1183" width="200" stroke="#fff" stroke-width="0.5" fill="#fdc886" display="none" height="20" transform="translate(0,140)"/></g><text class="uml-class-name-text" id="v-1184" font-size="12" xml:space="preserve" y="0.8em" text-anchor="middle" font-weight="bold" fill="black" font-family="Times New Roman" transform="matrix(1,0,0,1,130,8.9)"><tspan id="v-1187" class="v-line" dy="0em">พื้นที่</tspan></text><text class="uml-class-attrs-text" id="v-1185" font-size="12" xml:space="preserve" y="0.8em" fill="black" font-family="monospace" transform="matrix(1,0,0,1,5,38.5)"><tspan id="v-1188" class="v-line" dy="0em">INT(10)        หมายเลขพื้นที่      PK</tspan><tspan id="v-1189" class="v-line" dy="1em" x="0">ENUM('เสื้อผ้า'ประเภทพื้นที่</tspan><tspan id="v-1190" class="v-line" dy="1em" x="0">FLOAT(8,2)     ราคา</tspan><tspan id="v-1191" class="v-line" dy="1em" x="0">BOOLEAN        สถานะ</tspan></text><text class="uml-class-methods-text" id="v-1186" font-size="12" display="none" xml:space="preserve" y="0.8em" fill="black" font-family="Times New Roman" transform="matrix(1,0,0,1,5,5)"><tspan id="v-1192" class="v-line v-empty-line" dy="0em" style="fill-opacity: 0; stroke-opacity: 0;">-</tspan></text></g></g><g model-id="273b33c8-49ce-4421-86ce-a286f634205e" id="j_103" class="joint-cell joint-type-uml joint-type-uml-class joint-element joint-theme-default" data-type="uml.Class" fill="#ffffff" stroke="none" transform="translate(763,590)"><g class="rotatable" id="v-1193"><g class="scalable" transform="scale(1.3530029296875,0.6833333333333333)"><rect class="uml-class-name-rect" id="v-1194" width="200" stroke="#ffffff" stroke-width="0.5" fill="#feb662" height="40" transform="translate(0,0)"/><rect class="uml-class-attrs-rect" id="v-1195" width="200" stroke="#fff" stroke-width="0.5" fill="#fdc886" height="80" transform="translate(0,40)"/><rect class="uml-class-methods-rect" id="v-1196" width="200" stroke="#fff" stroke-width="0.5" fill="#fdc886" display="none" height="20" transform="translate(0,120)"/></g><text class="uml-class-name-text" id="v-1197" font-size="12" xml:space="preserve" y="0.8em" text-anchor="middle" font-weight="bold" fill="black" font-family="Times New Roman" transform="matrix(1,0,0,1,135.3,8.1)"><tspan id="v-1200" class="v-line" dy="0em">การชำระเงิน</tspan></text><text class="uml-class-attrs-text" id="v-1198" font-size="12" xml:space="preserve" y="0.8em" fill="black" font-family="monospace" transform="matrix(1,0,0,1,5,37.1)"><tspan id="v-1201" class="v-line" dy="0em">FLOAT(8,2)     ค่ามัดจำการจอง</tspan><tspan id="v-1202" class="v-line" dy="1em" x="0">FLOAT(8,2)     ค่าล่วงหน้าการเช่า</tspan><tspan id="v-1203" class="v-line" dy="1em" x="0">INT(10)        เลขที่สัญญา         FK</tspan></text><text class="uml-class-methods-text" id="v-1199" font-size="12" display="none" xml:space="preserve" y="0.8em" fill="black" font-family="Times New Roman" transform="matrix(1,0,0,1,5,5)"><tspan id="v-1204" class="v-line v-empty-line" dy="0em" style="fill-opacity: 0; stroke-opacity: 0;">-</tspan></text></g></g><g model-id="bbca9ad8-7a7a-425a-90c4-99aaa7b6f649" id="j_104" class="joint-cell joint-type-uml joint-type-uml-relationship joint-type-uml-relationship-nonidentifying joint-type-uml-relationship-nonidentifying-optional_one_optional_many joint-link joint-theme-default" data-type="uml.relationship.nonidentifying.optional_one_optional_many" fill="transparent"><path class="connection" stroke="black" d="M 1126 276 1029 255" id="v-1215" stroke-dasharray="3,3"/><path class="marker-source" fill="none" stroke="black" d="M 0 0 L 10 10 L 0 10 L 10 10 L 0 20 L 10 10 a 5,5 0 1,0 10,0 a 5,5 0 1,0 -10,0" id="v-1213" transform="translate(1143.904657080955,289.7780391495877) scale(1,1) rotate(-167.90524291992188)"/><path class="marker-target" fill="none" stroke="black" d="M 10 0 L 10 20 L 10 10 L 0 10 L 14 10 a 5,5 0 1,0 10,0 a 5,5 0 1,0 -10,0" id="v-1214" transform="translate(1008.0953044971626,240.2219700556584) scale(1,1) rotate(12.094757080078168)"/><path class="connection-wrap" d="M 1126 276 1029 255"/><g class="labels"><g class="label" id="v-1209" label-idx="0" cursor="default" transform="translate(1077.5, 265.5)" fill="black"><rect id="v-1211" fill="white" rx="3" ry="3" width="53.875" height="16.078125476837158" transform="matrix(1,0,0,1,-26.9,-8.1)"/><text id="v-1210" font-size="14" xml:space="preserve" y="0.8em" text-anchor="middle" pointer-events="none" transform="matrix(1,0,0,1,0,-6.4)"><tspan id="v-1212" class="v-line" dy="0em">ชำระเงิน</tspan></text></g></g></g><g model-id="63ab1fa6-1bf6-41c6-9dc8-d4874d0048d0" id="j_105" class="joint-cell joint-type-uml joint-type-uml-relationship joint-type-uml-relationship-identifying joint-type-uml-relationship-identifying-optional_one_mandatory_one joint-link joint-theme-default" data-type="uml.relationship.identifying.optional_one_mandatory_one" fill="transparent"><path class="connection" stroke="black" d="M 871 165 871 134"/><path class="marker-source" fill="none" stroke="black" d="M 0 0 L 10 0 M 10 0 L 10 10 L 10 -10 M 15 0 L 15 10 L 15 -10" id="v-1224" transform="translate(871,180) scale(1,1) rotate(-90)"/><path class="marker-target" fill="none" stroke="black" d="M 10 0 L 10 20 L 10 10 L 0 10 L 14 10 a 5,5 0 1,0 10,0 a 5,5 0 1,0 -10,0" id="v-1225" transform="translate(881,110) scale(1,1) rotate(-270)"/><path class="connection-wrap" d="M 871 165 871 134"/><g class="labels"><g class="label" id="v-1220" label-idx="0" cursor="default" transform="translate(871, 149.5)" fill="black"><rect id="v-1222" fill="white" rx="3" ry="3" width="0" height="0" transform="matrix(1,0,0,1,0,0)"/><text id="v-1221" font-size="14" display="none" xml:space="preserve" y="0.8em" text-anchor="middle" pointer-events="none"><tspan id="v-1223" class="v-line v-empty-line" dy="0em" style="fill-opacity: 0; stroke-opacity: 0;">-</tspan></text></g></g></g><g model-id="daaaba7c-e240-42fc-b25b-4cd483db3c77" id="j_106" class="joint-cell joint-type-uml joint-type-uml-relationship joint-type-uml-relationship-identifying joint-type-uml-relationship-identifying-optional_one_optional_many joint-link joint-theme-default" data-type="uml.relationship.identifying.optional_one_optional_many" fill="transparent"><path class="connection" stroke="black" d="M 1307 439 1300 396"/><path class="marker-source" fill="none" stroke="black" d="M 0 0 L 10 10 L 0 10 L 10 10 L 0 20 L 10 10 a 5,5 0 1,0 10,0 a 5,5 0 1,0 -10,0" id="v-1234" transform="translate(1300.1270251209735,460.588756490756) scale(1,1) rotate(-99.14163970947266)"/><path class="marker-target" fill="none" stroke="black" d="M 10 0 L 10 20 L 10 10 L 0 10 L 14 10 a 5,5 0 1,0 10,0 a 5,5 0 1,0 -10,0" id="v-1235" transform="translate(1305.8729744347445,370.41125673580103) scale(1,1) rotate(80.85836791992193)"/><path class="connection-wrap" d="M 1307 439 1300 396"/><g class="labels"><g class="label" id="v-1230" label-idx="0" cursor="default" transform="translate(1303.5, 417.5)" fill="black"><rect id="v-1232" fill="white" rx="3" ry="3" width="9.390625" height="16.000000476837158" transform="matrix(1,0,0,1,-4.7,-8)"/><text id="v-1231" font-size="14" xml:space="preserve" y="0.8em" text-anchor="middle" pointer-events="none" transform="matrix(1,0,0,1,0,-6.4)"><tspan id="v-1233" class="v-line" dy="0em">มี</tspan></text></g></g></g><g model-id="36c29167-08d0-402e-9e88-9687cc07ae56" id="j_107" class="joint-cell joint-type-uml joint-type-uml-relationship joint-type-uml-relationship-nonidentifying joint-type-uml-relationship-nonidentifying-optional_one_optional_many joint-link joint-theme-default" data-type="uml.relationship.nonidentifying.optional_one_optional_many" fill="transparent"><path class="connection" stroke="black" d="M 1317 561 1319 617" id="v-1246" stroke-dasharray="3,3"/><path class="marker-source" fill="none" stroke="black" d="M 0 0 L 10 10 L 0 10 L 10 10 L 0 20 L 10 10 a 5,5 0 1,0 10,0 a 5,5 0 1,0 -10,0" id="v-1244" transform="translate(1326.9979936970872,540.8000270894793) scale(1,1) rotate(88.854248046875)"/><path class="marker-target" fill="none" stroke="black" d="M 10 0 L 10 20 L 10 10 L 0 10 L 14 10 a 5,5 0 1,0 10,0 a 5,5 0 1,0 -10,0" id="v-1245" transform="translate(1309.0019604871316,641.1999405483789) scale(1,1) rotate(-91.14575958251953)"/><path class="connection-wrap" d="M 1317 561 1319 617"/><g class="labels"><g class="label" id="v-1240" label-idx="0" cursor="default" transform="translate(1318, 589)" fill="black"><rect id="v-1242" fill="white" rx="3" ry="3" width="9.390625" height="16.000000476837158" transform="matrix(1,0,0,1,-4.7,-8)"/><text id="v-1241" font-size="14" xml:space="preserve" y="0.8em" text-anchor="middle" pointer-events="none" transform="matrix(1,0,0,1,0,-6.4)"><tspan id="v-1243" class="v-line" dy="0em">มี</tspan></text></g></g></g><g model-id="04e8fe27-3c75-4b59-9572-9d677ba33b98" id="j_108" class="joint-cell joint-type-uml joint-type-uml-relationship joint-type-uml-relationship-nonidentifying joint-type-uml-relationship-nonidentifying-mandatory_one_optional_many joint-link joint-theme-default" data-type="uml.relationship.nonidentifying.mandatory_one_optional_many" fill="transparent"><path class="connection" stroke="black" d="M 699 307 776 269" id="v-1257" stroke-dasharray="3,3"/><path class="marker-source" fill="none" stroke="black" d="M 0 0 L 10 10 L 0 10 L 10 10 L 0 20 L 10 10 a 5,5 0 1,0 10,0 a 5,5 0 1,0 -10,0" id="v-1255" transform="translate(676.5278669705787,307.05572679412774) scale(1,1) rotate(-26.565052032470696)"/><path class="marker-target" fill="none" stroke="black" d="M 0 0 L 10 0 M 10 0 L 10 10 L 10 -10 M 15 0 L 15 10 L 15 -10" id="v-1256" transform="translate(789.0000131877687,261.9999938392108) scale(1,1) rotate(-206.56504821777344)"/><path class="connection-wrap" d="M 699 307 776 269"/><g class="labels"><g class="label" id="v-1251" label-idx="0" cursor="default" transform="translate(737.5, 288)" fill="black"><rect id="v-1253" fill="white" rx="3" ry="3" width="17.609375" height="16.000000476837158" transform="matrix(1,0,0,1,-8.8,-8)"/><text id="v-1252" font-size="14" xml:space="preserve" y="0.8em" text-anchor="middle" pointer-events="none" transform="matrix(1,0,0,1,0,-6.4)"><tspan id="v-1254" class="v-line" dy="0em">ทำ</tspan></text></g></g></g><g model-id="7eacfdf9-6d63-4940-ab1a-5d28e2ec1f78" id="j_109" class="joint-cell joint-type-uml joint-type-uml-relationship joint-type-uml-relationship-nonidentifying joint-type-uml-relationship-nonidentifying-mandatory_one_optional_one joint-link joint-theme-default" data-type="uml.relationship.nonidentifying.mandatory_one_optional_one" fill="transparent"><path class="connection" stroke="black" d="M 295 369 435 366" id="v-1268" stroke-dasharray="3,3"/><path class="marker-source" fill="none" stroke="black" d="M 10 0 L 10 20 L 10 10 L 0 10 L 14 10 a 5,5 0 1,0 10,0 a 5,5 0 1,0 -10,0" id="v-1266" transform="translate(270.8324322878999,359.0014129096318) scale(1,1) rotate(-0.960174560546875)"/><path class="marker-target" fill="none" stroke="black" d="M 0 0 L 10 0 M 10 0 L 10 10 L 10 -10 M 15 0 L 15 10 L 15 -10" id="v-1267" transform="translate(450.0000149991892,365.99999071348714) scale(1,1) rotate(-180.96017456054688)"/><path class="connection-wrap" d="M 295 369 435 366"/><g class="labels"><g class="label" id="v-1262" label-idx="0" cursor="default" transform="translate(365, 367.5)" fill="black"><rect id="v-1264" fill="white" rx="3" ry="3" width="50.09375" height="16.000000476837158" transform="matrix(1,0,0,1,-25,-8)"/><text id="v-1263" font-size="14" xml:space="preserve" y="0.8em" text-anchor="middle" pointer-events="none" transform="matrix(1,0,0,1,0,-6.4)"><tspan id="v-1265" class="v-line" dy="0em">เป็นของ</tspan></text></g></g></g><g model-id="eaf3282c-1056-43e9-b8e3-a49542e3f9f0" id="j_110" class="joint-cell joint-type-uml joint-type-uml-relationship joint-type-uml-relationship-identifying joint-type-uml-relationship-identifying-mandatory_one_mandatory_many joint-link joint-theme-default" data-type="uml.relationship.identifying.mandatory_one_mandatory_many" fill="transparent"><path class="connection" stroke="black" d="M 508 561 561 426"/><path class="marker-source" fill="none" stroke="black" d="M 0 0 L 10 10 L 0 10 L 10 10 L 0 20 L 10 10" id="v-1277" transform="translate(494.691061217922,566.3471156865654) scale(1,1) rotate(-68.57470703125)"/><path class="marker-target" fill="none" stroke="black" d="M 0 0 L 10 0 M 10 0 L 10 10 L 10 -10 M 15 0 L 15 10 L 15 -10" id="v-1278" transform="translate(565.9999731357701,412.0000100814242) scale(1,1) rotate(-248.57470703125)"/><path class="connection-wrap" d="M 508 561 561 426"/><g class="labels"><g class="label" id="v-1273" label-idx="0" cursor="default" transform="translate(534.5, 493.5)" fill="black"><rect id="v-1275" fill="white" rx="3" ry="3" width="50.09375" height="16.000000476837158" transform="matrix(1,0,0,1,-25,-8)"/><text id="v-1274" font-size="14" xml:space="preserve" y="0.8em" text-anchor="middle" pointer-events="none" transform="matrix(1,0,0,1,0,-6.4)"><tspan id="v-1276" class="v-line" dy="0em">เป็นของ</tspan></text></g></g></g><g model-id="cfb76444-f659-4ffa-9a32-008466ce5d3b" id="j_111" class="joint-cell joint-type-uml joint-type-uml-relationship joint-type-uml-relationship-identifying joint-type-uml-relationship-identifying-mandatory_one_optional_many joint-link joint-theme-default" data-type="uml.relationship.identifying.mandatory_one_optional_many" fill="transparent"><path class="connection" stroke="black" d="M 466 671 444 735"/><path class="marker-source" fill="none" stroke="black" d="M 0 0 L 10 10 L 0 10 L 10 10 L 0 20 L 10 10 a 5,5 0 1,0 10,0 a 5,5 0 1,0 -10,0" id="v-1287" transform="translate(482.4370716843539,655.3078427536965) scale(1,1) rotate(-250.68365478515622)"/><path class="marker-target" fill="none" stroke="black" d="M 0 0 L 10 0 M 10 0 L 10 10 L 10 -10 M 15 0 L 15 10 L 15 -10" id="v-1288" transform="translate(438.9999873505405,748.9999795310989) scale(1,1) rotate(-70.6836471557617)"/><path class="connection-wrap" d="M 466 671 444 735"/><g class="labels"><g class="label" id="v-1283" label-idx="0" cursor="default" transform="translate(455, 703)" fill="black"><rect id="v-1285" fill="white" rx="3" ry="3" width="50.09375" height="16.000000476837158" transform="matrix(1,0,0,1,-25,-8)"/><text id="v-1284" font-size="14" xml:space="preserve" y="0.8em" text-anchor="middle" pointer-events="none" transform="matrix(1,0,0,1,0,-6.4)"><tspan id="v-1286" class="v-line" dy="0em">เป็นของ</tspan></text></g></g></g><g model-id="20468c0a-440a-44b8-8ce2-29a1d40a7741" id="j_112" class="joint-cell joint-type-uml joint-type-uml-relationship joint-type-uml-relationship-identifying joint-type-uml-relationship-identifying-mandatory_one_optional_one joint-link joint-theme-default" data-type="uml.relationship.identifying.mandatory_one_optional_one" fill="transparent"><path class="connection" stroke="black" d="M 832 574 653 422"/><path class="marker-source" fill="none" stroke="black" d="M 10 0 L 10 20 L 10 10 L 0 10 L 14 10 a 5,5 0 1,0 10,0 a 5,5 0 1,0 -10,0" id="v-1297" transform="translate(843.4981208755637,597.5977488038294) scale(1,1) rotate(-139.44410705566406)"/><path class="marker-target" fill="none" stroke="black" d="M 0 0 L 10 0 M 10 0 L 10 10 L 10 -10 M 15 0 L 15 10 L 15 -10" id="v-1298" transform="translate(642.0000140939356,412.00001135379705) scale(1,1) rotate(40.555908203125)"/><path class="connection-wrap" d="M 832 574 653 422"/><g class="labels"><g class="label" id="v-1293" label-idx="0" cursor="default" transform="translate(742.5, 498)" fill="black"><rect id="v-1295" fill="white" rx="3" ry="3" width="9.390625" height="16.000000476837158" transform="matrix(1,0,0,1,-4.7,-8)"/><text id="v-1294" font-size="14" xml:space="preserve" y="0.8em" text-anchor="middle" pointer-events="none" transform="matrix(1,0,0,1,0,-6.4)"><tspan id="v-1296" class="v-line" dy="0em">มี</tspan></text></g></g></g></g><defs id="v-4"/></svg>